<svg width="415" height="300" viewBox="0 0 415 300" fill="none" xmlns="http://www.w3.org/2000/svg">
<path d="M61.9916 140.425L35.9395 215.46L147.261 254.111L173.314 179.076L61.9916 140.425Z" fill="#EBEBEB"/>
<path d="M173.31 179.086C173.323 179.12 172.847 179.339 171.927 179.725C170.908 180.138 169.563 180.683 167.885 181.364C164.248 182.787 159.169 184.774 152.934 187.214C140.171 192.098 122.699 198.783 103.348 206.187L102.939 206.343L102.705 205.973C102.527 205.69 102.333 205.383 102.139 205.076C91.0045 187.312 80.9283 171.237 73.5604 159.484C69.9932 153.696 67.0854 148.979 65.004 145.602C64.0561 144.021 63.2977 142.757 62.7237 141.799C62.2125 140.923 61.9588 140.453 61.9899 140.434C62.0209 140.414 62.3354 140.845 62.9059 141.684C63.5233 142.615 64.3381 143.843 65.356 145.38C67.5076 148.713 70.5131 153.369 74.2003 159.08C81.6361 170.79 91.8055 186.807 103.044 204.506C103.237 204.813 103.43 205.119 103.609 205.402L102.968 205.187C122.363 197.899 139.874 191.319 152.666 186.512C158.951 184.204 164.071 182.325 167.737 180.978C169.445 180.375 170.812 179.892 171.85 179.525C172.795 179.204 173.297 179.051 173.31 179.086Z" fill="#E0E0E0"/>
<path d="M35.9379 215.465C35.7868 215.211 47.7297 207.833 62.6087 198.986C77.4934 190.137 89.6778 183.172 89.8289 183.426C89.98 183.68 78.04 191.057 63.156 199.906C48.2763 208.752 36.089 215.719 35.9379 215.465Z" fill="#E0E0E0"/>
<path d="M127.156 195.336C127.436 195.241 132.162 208.323 137.712 224.552C143.264 240.788 147.536 254.022 147.256 254.118C146.976 254.213 142.251 241.134 136.7 224.899C131.15 208.669 126.877 195.431 127.156 195.336Z" fill="#E0E0E0"/>
<path d="M390.466 120.921L280.322 139.589L292.905 213.83L403.049 195.162L390.466 120.921Z" fill="#E0E0E0"/>
<path d="M390.483 120.947C390.51 120.97 390.213 121.37 389.625 122.109C388.966 122.918 388.098 123.984 387.014 125.316C384.64 128.158 381.326 132.126 377.258 136.999C368.878 146.881 357.408 160.408 344.703 175.389L344.435 175.705L344.071 175.503C343.794 175.35 343.493 175.183 343.192 175.017C325.834 165.333 310.126 156.571 298.641 150.164C293.036 146.982 288.468 144.388 285.196 142.53C283.687 141.649 282.481 140.944 281.566 140.411C280.742 139.916 280.317 139.641 280.333 139.611C280.35 139.581 280.808 139.795 281.665 140.232C282.603 140.724 283.841 141.374 285.388 142.186C288.697 143.974 293.318 146.472 298.989 149.537C310.511 155.877 326.269 164.548 343.684 174.13C343.985 174.297 344.285 174.463 344.563 174.617L343.932 174.731C356.726 159.826 368.277 146.368 376.715 136.537C380.886 131.752 384.283 127.853 386.716 125.062C387.86 123.781 388.776 122.756 389.471 121.978C390.109 121.281 390.456 120.925 390.483 120.947Z" fill="#EBEBEB"/>
<path d="M292.915 213.857C292.673 213.714 299.232 202.134 307.561 187.993C315.895 173.848 322.843 162.501 323.085 162.643C323.325 162.785 316.769 174.363 308.436 188.508C300.106 202.648 293.156 213.998 292.915 213.857Z" fill="#EBEBEB"/>
<path d="M359.54 155.51C359.729 155.304 369.625 164.02 381.641 174.976C393.662 185.936 403.25 194.986 403.062 195.193C402.873 195.399 392.978 186.685 380.958 175.726C368.942 164.769 359.351 155.717 359.54 155.51Z" fill="#EBEBEB"/>
<path d="M280.344 2.89346L260.506 53.3491L335.363 82.7819L355.201 32.3263L280.344 2.89346Z" fill="#EBEBEB"/>
<path d="M355.223 33.0161C355.231 33.0399 354.9 33.1759 354.262 33.4137C353.556 33.6675 352.624 34.0022 351.46 34.4201C348.94 35.2906 345.421 36.5059 341.101 37.9981C332.26 40.9768 320.16 45.0544 306.757 49.5701L306.474 49.6656L306.324 49.406C306.21 49.2079 306.087 48.9939 305.964 48.7792C298.86 36.3555 292.43 25.1132 287.73 16.8929C285.457 12.8471 283.604 9.54959 282.277 7.18834C281.674 6.08435 281.192 5.20087 280.827 4.53139C280.502 3.91975 280.343 3.59296 280.364 3.57995C280.386 3.56766 280.588 3.86986 280.954 4.45765C281.35 5.10977 281.871 5.97012 282.524 7.04592C283.9 9.37897 285.821 12.6367 288.178 16.6348C292.927 24.8269 299.421 36.0324 306.598 48.4141C306.721 48.6288 306.845 48.8436 306.958 49.0409L306.527 48.8768C319.957 44.4413 332.082 40.4367 340.94 37.5108C345.291 36.1104 348.834 34.9696 351.372 34.1526C352.554 33.7882 353.499 33.4961 354.217 33.2749C354.869 33.0826 355.215 32.9929 355.223 33.0161Z" fill="#E0E0E0"/>
<path d="M260.523 54.0381C260.427 53.8609 268.776 49.1572 279.169 43.5346C289.565 37.9098 298.068 33.4953 298.165 33.6732C298.261 33.8503 289.913 38.5526 279.517 44.1773C269.124 49.7999 260.619 54.2152 260.523 54.0381Z" fill="#E0E0E0"/>
<path d="M323.294 42.8264C323.487 42.7693 326.351 51.8225 329.688 63.0453C333.026 74.2717 335.575 83.4167 335.381 83.4738C335.188 83.5309 332.326 74.48 328.987 63.2528C325.651 52.0307 323.101 42.8843 323.294 42.8264Z" fill="#E0E0E0"/>
<path d="M259.152 232.186C323.636 232.781 356.757 199.771 356.757 199.771C373.195 184.973 378.643 165.044 376.987 142.989C375.276 120.214 367.757 103.001 347.502 92.4478C327.247 81.8945 302.546 81.217 280.969 88.7057C268.166 93.1491 255.729 100.41 242.189 99.8287C223.714 99.0363 209.07 83.8342 199.689 67.8976C190.309 51.9609 183.827 33.9819 171.122 20.546C153.36 1.76225 124.054 -5.06702 99.8187 3.92975C75.5837 12.9265 57.2655 34.5349 52.1244 60.6396C52.1244 60.6396 41.4749 96.0208 66.7525 144.565C119.727 246.299 259.152 232.186 259.152 232.186Z" fill="#EBEBEB"/>
<path d="M414.69 299.421C414.69 299.525 321.921 299.609 207.51 299.609C93.0602 299.609 0.310547 299.524 0.310547 299.421C0.310547 299.317 93.0602 299.233 207.51 299.233C321.921 299.232 414.69 299.317 414.69 299.421Z" fill="#263238"/>
<path d="M20.7578 102.321L31.1087 98.6552L26.666 92.7232C26.5908 92.3342 26.358 90.9642 26.3479 88.7526C26.345 88.0686 26.465 87.3897 26.6913 86.7441C26.9653 85.9611 27.3723 84.9359 27.7693 84.4436C28.2609 83.8348 27.7562 82.9449 27.0694 83.1278C26.3826 83.3107 24.9879 84.9562 24.3712 87.3991C23.7545 89.8421 22.0816 86.2474 21.4482 84.949C20.8149 83.6498 18.6669 79.7225 18.1139 79.6011C17.3019 79.4225 16.9614 80.2597 17.6237 81.5423C18.2946 82.8408 20.0023 86.8114 19.3003 87.1121C18.6084 87.4093 15.475 80.7521 15.475 80.7521C15.475 80.7521 15.0354 79.2208 14.2127 79.5418C12.7284 80.1209 16.5804 86.9523 16.9629 87.5936C17.2289 88.039 16.4778 88.394 16.2175 87.9002C15.95 87.3919 13.2468 81.1873 11.7292 81.7628C10.5652 82.2045 14.8453 87.4114 14.6913 89.0099C14.5365 90.6085 11.8471 84.7313 10.7525 85.1984C10.3447 85.3726 10.0649 85.5592 12.0972 88.7113C12.7848 89.7777 14.0182 91.3473 15.3586 92.9704L20.7578 102.321Z" fill="#FFBE9D"/>
<path d="M113.813 114.966C113.813 114.966 108.713 103.046 105.187 97.2568C101.87 91.8077 97.4761 90.9221 95.1344 90.7565C93.3653 90.2389 92.1521 90.1463 92.1521 90.1463L72.9989 89.9836C72.9989 89.9836 67.051 89.6713 61.5686 94.1748C60.6851 94.9006 54.0648 102.575 45.2864 113.509L29.9209 96.9062L20.7607 102.323C20.7607 102.323 30.7097 136.673 43.1934 134.315C50.5902 132.917 56.3747 127.767 56.3747 127.767L66.0952 119.932L66.32 121.229C66.5167 122.813 67.0098 125.372 67.3814 126.924C68.5569 131.83 69.2098 138.295 66.6852 142.577C66.6852 142.577 63.2206 145.226 65.9766 148.141H102.013C102.013 148.141 107.118 144.681 102.457 140.83L99.5366 133.518L101.424 124.598L102.131 121.026L105.3 126.462C105.3 126.462 111.579 134.361 118.106 133.389C125.954 132.221 130.503 117.928 123.419 99.0288L114.888 101.624L113.813 114.966Z" fill="#EA580C"/>
<g opacity="0.4">
<path d="M20.7568 102.321L21.662 105.188L31.8372 98.979L29.917 96.9048L20.7568 102.321Z" fill="black"/>
</g>
<g opacity="0.2">
<path d="M66.6824 142.576C69.7717 142.156 72.4149 140.407 74.2708 137.902C76.1267 135.397 76.922 132.131 76.4246 129.054C76.2489 127.969 75.8527 126.817 74.9215 126.233C73.785 125.521 72.2342 125.888 71.0507 125.257C70.0855 124.743 69.5693 123.687 68.9013 122.822C68.2332 121.956 67.2962 120.607 66.2949 121.045C66.2949 121.045 67.5045 127.408 68.033 130.24C68.5644 133.092 68.7321 137.14 67.7387 140.117C67.4654 140.997 67.1075 141.813 66.6824 142.576Z" fill="black"/>
</g>
<path d="M43.8394 119.373C43.7259 119.356 43.9081 117.994 44.3737 116.388C44.8379 114.786 45.1841 113.491 45.2854 113.507C45.3989 113.524 45.2167 114.886 44.7511 116.493C44.2869 118.094 43.9406 119.389 43.8394 119.373Z" fill="#263238"/>
<path d="M46.1175 117.787C46.0112 117.809 45.7322 116.866 45.4936 115.682C45.255 114.498 45.148 113.521 45.2535 113.5C45.3598 113.479 45.6389 114.421 45.8775 115.605C46.1161 116.788 46.2231 117.765 46.1175 117.787Z" fill="#263238"/>
<path d="M114.843 75.7026L101.76 96.9047L112.056 99.7685L123.478 82.1538L114.843 75.7026Z" fill="#455A64"/>
<path d="M114.026 93.7657L114.474 96.8644L116.299 99.2134L116.482 101.139L123.046 99.1418L120.394 89.7763C120.394 89.7763 120.82 87.05 120.65 85.9424L118.847 88.3383L118.35 84.4342L114.649 81.4592C114.248 81.1599 113.679 81.2473 113.386 81.6529C113.126 82.0122 113.168 82.5068 113.484 82.8176L116.454 85.4363L116.646 88.6694L114.499 86.6704C114.287 86.473 114.024 86.3385 113.741 86.2822L110.756 85.685C110.305 85.5946 109.874 85.9127 109.829 86.3704C109.792 86.7391 110.02 87.0825 110.375 87.1917L113.089 88.0267L115.837 90.7993L113.153 89.777L109.502 90.2882C109.153 90.3374 108.893 90.6359 108.893 90.9888C108.893 91.3951 109.234 91.7175 109.639 91.6951L111.96 91.5664L113.324 91.9923L110.183 92.8237C109.894 92.9003 109.697 93.1693 109.712 93.4679C109.731 93.8257 110.041 94.0976 110.398 94.0679L114.026 93.7657Z" fill="#FFBE9D"/>
<g opacity="0.4">
<path d="M114.886 101.624L114.606 105.097L124.56 102.351L123.417 99.0288L114.886 101.624Z" fill="black"/>
</g>
<path d="M101.759 96.9048C101.759 96.9048 100.881 95.7104 100.948 95.5073C101.016 95.3041 113.4 74.9219 113.4 74.9219L114.842 75.7027L101.759 96.9048Z" fill="#263238"/>
<path d="M118.12 81.0315C118.341 80.8102 118.785 80.923 118.875 81.2223C118.964 81.5216 118.653 81.86 118.347 81.7957C118.041 81.7313 117.893 81.2975 118.094 81.0589" fill="#263238"/>
<path d="M109.926 107.193C109.926 107.193 109.842 107.402 109.548 107.702C109.257 108.001 108.718 108.357 107.939 108.539C107.164 108.737 106.167 108.725 105.066 108.536C103.969 108.383 102.704 108.066 101.358 108.37C100.011 108.665 98.723 109.528 97.4433 110.55C96.1506 111.544 94.7863 112.769 92.9471 113.348C92.0311 113.609 91.0413 113.696 90.053 113.575C89.0668 113.445 88.1002 113.141 87.1531 112.771C85.2567 112.025 83.4377 110.978 81.4452 110.254C80.4496 109.897 79.4324 109.655 78.4159 109.581C77.3972 109.517 76.3858 109.632 75.409 109.835C73.4512 110.24 71.6163 110.922 69.7842 111.31C66.0884 112.14 62.5942 111.289 60.1173 109.973C57.6006 108.649 55.9992 106.923 55.0853 105.652C54.1787 104.357 53.8809 103.529 53.8809 103.529C53.9271 103.504 54.2742 104.31 55.2075 105.56C56.1481 106.791 57.756 108.458 60.2431 109.726C62.6947 110.988 66.1079 111.786 69.7069 110.957C71.5042 110.568 73.3341 109.878 75.3309 109.459C76.3272 109.248 77.3748 109.126 78.439 109.192C79.5025 109.266 80.5588 109.52 81.5775 109.885C83.6127 110.626 85.4346 111.679 87.2941 112.414C88.2224 112.779 89.1587 113.075 90.1 113.205C91.0427 113.322 91.9747 113.243 92.843 113.003C94.581 112.47 95.938 111.284 97.2438 110.293C98.5364 109.279 99.879 108.392 101.3 108.099C102.731 107.799 104.017 108.15 105.1 108.319C106.191 108.526 107.146 108.558 107.905 108.389C108.664 108.235 109.193 107.914 109.494 107.644C109.797 107.372 109.908 107.18 109.926 107.193Z" fill="#FAFAFA"/>
<path d="M114.017 120.965C113.908 120.969 113.776 119.533 113.721 117.759C113.666 115.984 113.709 114.543 113.817 114.54C113.926 114.536 114.058 115.972 114.113 117.747C114.168 119.521 114.125 120.962 114.017 120.965Z" fill="#263238"/>
<path d="M91.4668 253.898C91.7842 255.153 99.1571 296.501 99.1571 296.501L110.453 295.655L108.388 253.436L91.4668 253.898Z" fill="#FFBE9D"/>
<path d="M110.794 296.311L110.758 295.122L98.7197 295.373L98.792 299.292L99.536 299.323C102.847 299.431 116.379 299.658 118.576 298.994C121.026 298.252 110.794 296.311 110.794 296.311Z" fill="#EA580C"/>
<g opacity="0.3">
<path d="M103.142 299.123C102.95 298.195 102.373 297.341 101.558 296.776C100.742 296.212 99.7483 295.925 98.7383 296.019L98.8077 299.132L103.142 299.123Z" fill="black"/>
</g>
<g opacity="0.3">
<path d="M115.802 297.423C115.802 297.423 119.393 298.313 118.96 298.869C118.528 299.423 104.844 299.673 98.7969 299.292L98.8106 299.042L114.775 298.878C114.775 298.878 115.104 297.464 115.802 297.423Z" fill="black"/>
</g>
<path d="M98.6221 299.04C98.6221 299.045 98.6929 299.05 98.8289 299.057C99.0067 299.063 99.2012 299.071 99.4217 299.079C100.014 299.092 100.743 299.108 101.602 299.127C103.443 299.155 105.988 299.162 108.797 299.113C111.607 299.063 114.149 298.967 115.987 298.874C116.846 298.825 117.572 298.784 118.164 298.751C118.383 298.735 118.577 298.72 118.754 298.707C118.889 298.696 118.96 298.688 118.96 298.683C118.959 298.678 118.888 298.677 118.753 298.68C118.575 298.685 118.38 298.691 118.16 298.698C117.568 298.72 116.84 298.747 115.982 298.779C114.142 298.847 111.601 298.928 108.792 298.978C105.985 299.026 103.442 299.034 101.601 299.031C100.742 299.029 100.014 299.028 99.4217 299.026C99.2019 299.027 99.0067 299.028 98.8289 299.029C98.6937 299.032 98.6228 299.036 98.6221 299.04Z" fill="#263238"/>
<path d="M114.771 299.051C114.815 299.055 114.839 298.571 115.157 298.077C115.465 297.577 115.908 297.322 115.882 297.288C115.872 297.255 115.363 297.474 115.031 298.009C114.692 298.539 114.735 299.059 114.771 299.051Z" fill="#263238"/>
<path d="M111.203 297.449C111.237 297.468 111.402 297.274 111.571 297.014C111.74 296.755 111.849 296.529 111.815 296.51C111.781 296.49 111.616 296.685 111.447 296.944C111.277 297.204 111.168 297.429 111.203 297.449Z" fill="#263238"/>
<path d="M110.215 296.989C110.243 297.017 110.429 296.896 110.632 296.72C110.834 296.543 110.977 296.379 110.949 296.351C110.922 296.324 110.735 296.444 110.533 296.621C110.33 296.797 110.188 296.962 110.215 296.989Z" fill="#263238"/>
<path d="M109.579 295.947C109.58 295.985 109.86 296.013 110.206 296.01C110.552 296.007 110.832 295.974 110.831 295.938C110.831 295.901 110.55 295.872 110.204 295.875C109.859 295.878 109.578 295.91 109.579 295.947Z" fill="#263238"/>
<path d="M109.355 295.21C109.342 295.244 109.65 295.367 110.057 295.386C110.464 295.408 110.784 295.318 110.776 295.283C110.768 295.245 110.452 295.273 110.065 295.251C109.679 295.233 109.367 295.173 109.355 295.21Z" fill="#263238"/>
<path d="M111.587 296.467C111.586 296.482 111.883 296.511 112.357 296.448C112.593 296.417 112.873 296.36 113.173 296.265C113.322 296.213 113.478 296.173 113.639 296.077C113.714 296.028 113.797 295.96 113.825 295.851C113.854 295.743 113.79 295.624 113.702 295.567C112.958 295.226 112.229 295.624 111.964 295.983C111.817 296.166 111.752 296.343 111.723 296.465C111.695 296.588 111.699 296.658 111.707 296.659C111.734 296.667 111.752 296.376 112.044 296.041C112.188 295.877 112.407 295.717 112.693 295.632C112.963 295.552 113.35 295.525 113.612 295.673C113.736 295.755 113.692 295.889 113.557 295.968C113.432 296.046 113.269 296.096 113.128 296.148C112.839 296.246 112.569 296.312 112.34 296.354C111.88 296.44 111.586 296.445 111.587 296.467Z" fill="#263238"/>
<path d="M111.789 296.5C111.8 296.507 111.91 296.323 111.866 296.001C111.844 295.844 111.777 295.657 111.644 295.482C111.505 295.326 111.325 295.11 110.995 295.129C110.817 295.153 110.734 295.344 110.765 295.463C110.782 295.588 110.845 295.695 110.903 295.781C111.022 295.958 111.154 296.1 111.276 296.207C111.523 296.422 111.715 296.503 111.723 296.489C111.736 296.471 111.567 296.363 111.349 296.141C111.241 296.029 111.123 295.888 111.018 295.717C110.908 295.567 110.83 295.297 111.023 295.261C111.215 295.24 111.416 295.415 111.537 295.556C111.661 295.708 111.732 295.874 111.765 296.017C111.831 296.308 111.763 296.495 111.789 296.5Z" fill="#263238"/>
<path d="M98.794 295.987C98.7969 296.012 99.1367 295.95 99.6796 296C100.218 296.045 100.968 296.236 101.628 296.705C102.287 297.174 102.682 297.798 102.871 298.269C103.065 298.743 103.089 299.064 103.117 299.06C103.125 299.06 103.128 298.979 103.112 298.835C103.096 298.692 103.055 298.484 102.968 298.237C102.8 297.745 102.405 297.087 101.717 296.597C101.029 296.109 100.242 295.926 99.6883 295.904C99.4092 295.891 99.1829 295.908 99.0297 295.932C98.875 295.956 98.7918 295.979 98.794 295.987Z" fill="#263238"/>
<path d="M104.618 298.008C104.614 298.043 105.398 298.149 106.371 298.138C107.346 298.13 108.127 298.011 108.121 297.975C108.116 297.936 107.334 297.995 106.369 298.003C105.405 298.014 104.622 297.969 104.618 298.008Z" fill="#263238"/>
<path d="M102.274 298.049C102.245 298.076 102.341 298.202 102.425 298.368C102.511 298.533 102.556 298.68 102.597 298.677C102.636 298.677 102.655 298.5 102.556 298.31C102.459 298.118 102.299 298.022 102.274 298.049Z" fill="#263238"/>
<path d="M101.37 297.041C101.342 297.068 101.422 297.182 101.548 297.297C101.675 297.412 101.8 297.483 101.828 297.456C101.856 297.429 101.776 297.315 101.65 297.2C101.523 297.085 101.398 297.014 101.37 297.041Z" fill="#263238"/>
<path d="M100.091 296.596C100.101 296.633 100.26 296.629 100.437 296.684C100.616 296.734 100.743 296.823 100.774 296.797C100.806 296.776 100.702 296.619 100.48 296.555C100.261 296.489 100.078 296.562 100.091 296.596Z" fill="#263238"/>
<path d="M99.1804 296.392C99.1667 296.426 99.2368 296.483 99.3373 296.517C99.4378 296.551 99.5296 296.55 99.5441 296.515C99.5578 296.481 99.4877 296.424 99.3872 296.39C99.2867 296.356 99.1942 296.356 99.1804 296.392Z" fill="#263238"/>
<path d="M62.7274 250.447C62.6696 251.739 57.9717 292.008 57.9717 292.008L69.0311 294.456L79.2295 253.434L62.7274 250.447Z" fill="#FFBE9D"/>
<path d="M69.5338 295.53L69.7825 294.367L58.0305 291.745L57.168 295.569L57.8837 295.776C61.0735 296.669 74.1631 300.111 76.4542 299.989C79.0099 299.85 69.5338 295.53 69.5338 295.53Z" fill="#EA580C"/>
<g opacity="0.3">
<path d="M61.4279 296.439C61.4619 295.492 61.1055 294.525 60.4483 293.782C59.7911 293.04 58.8939 292.524 57.8896 292.375L57.2158 295.416L61.4279 296.439Z" fill="black"/>
</g>
<g opacity="0.3">
<path d="M74.1284 297.802C74.1284 297.802 77.4042 299.522 76.8518 299.958C76.2995 300.394 62.9496 297.378 57.168 295.568L57.2403 295.329L72.7843 298.97C72.7843 298.97 73.4415 297.675 74.1284 297.802Z" fill="black"/>
</g>
<path d="M57.0606 295.281C57.0591 295.285 57.1271 295.307 57.2572 295.346C57.4286 295.396 57.6158 295.449 57.8276 295.509C58.4002 295.662 59.1037 295.852 59.9337 296.074C61.7151 296.54 64.1848 297.152 66.9249 297.774C69.6657 298.395 72.1578 298.906 73.966 299.254C74.8112 299.411 75.5269 299.544 76.1096 299.652C76.3265 299.689 76.5188 299.721 76.6938 299.751C76.8276 299.772 76.8984 299.78 76.8991 299.776C76.8999 299.772 76.8312 299.754 76.6989 299.724C76.5246 299.687 76.3345 299.646 76.119 299.6C75.5392 299.481 74.8256 299.334 73.9841 299.161C72.1817 298.789 69.6939 298.263 66.9545 297.643C64.2159 297.022 61.7447 296.424 59.9575 295.983C59.1232 295.777 58.4162 295.602 57.8414 295.459C57.6274 295.408 57.438 295.362 57.2644 295.321C57.1321 295.29 57.062 295.276 57.0606 295.281Z" fill="#263238"/>
<path d="M72.7422 299.139C72.7841 299.154 72.9222 298.689 73.3481 298.284C73.7667 297.873 74.2576 297.73 74.2402 297.691C74.2388 297.656 73.6922 297.748 73.2425 298.188C72.787 298.623 72.7053 299.139 72.7422 299.139Z" fill="#263238"/>
<path d="M69.6577 296.731C69.6866 296.758 69.8926 296.608 70.1189 296.397C70.3452 296.186 70.505 295.992 70.4761 295.965C70.4472 295.939 70.2411 296.088 70.0148 296.3C69.7885 296.511 69.6288 296.704 69.6577 296.731Z" fill="#263238"/>
<path d="M68.8101 296.051C68.8303 296.084 69.04 296.011 69.2786 295.888C69.5171 295.765 69.6943 295.638 69.6747 295.605C69.6545 295.572 69.4448 295.645 69.2063 295.768C68.9677 295.891 68.7905 296.017 68.8101 296.051Z" fill="#263238"/>
<path d="M68.4377 294.888C68.429 294.924 68.6951 295.019 69.032 295.098C69.3689 295.178 69.648 295.213 69.6567 295.177C69.6653 295.141 69.3993 295.047 69.0624 294.966C68.7262 294.887 68.4464 294.852 68.4377 294.888Z" fill="#263238"/>
<path d="M68.3976 294.118C68.3773 294.148 68.647 294.34 69.0374 294.456C69.4271 294.575 69.7596 294.563 69.7596 294.528C69.7611 294.489 69.4473 294.44 69.0772 294.327C68.7063 294.217 68.4178 294.085 68.3976 294.118Z" fill="#263238"/>
<path d="M70.2559 295.87C70.2516 295.885 70.5328 295.983 71.0078 296.036C71.2449 296.062 71.5298 296.073 71.8443 296.052C72.0012 296.037 72.1624 296.035 72.341 295.98C72.4256 295.95 72.5224 295.904 72.5752 295.805C72.6294 295.708 72.5955 295.576 72.5232 295.5C71.8819 294.992 71.0794 295.205 70.736 295.491C70.5502 295.634 70.4446 295.791 70.3875 295.902C70.3311 296.015 70.3181 296.083 70.326 296.086C70.3506 296.102 70.4381 295.822 70.8003 295.567C70.9789 295.442 71.2305 295.338 71.5283 295.324C71.8096 295.311 72.192 295.376 72.4111 295.583C72.5123 295.692 72.4364 295.812 72.2875 295.856C72.1472 295.902 71.9773 295.911 71.8277 295.928C71.5233 295.955 71.2457 295.954 71.0121 295.94C70.5473 295.913 70.2602 295.848 70.2559 295.87Z" fill="#263238"/>
<path d="M70.451 295.949C70.4597 295.959 70.6108 295.805 70.6455 295.482C70.6614 295.324 70.6411 295.127 70.5537 294.925C70.4553 294.74 70.3324 294.487 70.0071 294.427C69.8285 294.408 69.7027 294.574 69.7042 294.697C69.6904 294.823 69.7266 294.941 69.7627 295.038C69.8357 295.239 69.9304 295.409 70.0237 295.542C70.2117 295.809 70.3794 295.933 70.391 295.922C70.4083 295.907 70.2695 295.763 70.1112 295.495C70.0324 295.361 69.9521 295.195 69.8892 295.004C69.8191 294.832 69.8068 294.551 70.0028 294.562C70.1943 294.587 70.3476 294.805 70.4322 294.97C70.5168 295.148 70.5464 295.326 70.5443 295.473C70.5378 295.772 70.4271 295.938 70.451 295.949Z" fill="#263238"/>
<path d="M57.959 292.359C57.9561 292.384 58.3003 292.405 58.8165 292.582C59.3276 292.754 60.0115 293.118 60.5408 293.731C61.0693 294.344 61.3042 295.044 61.3751 295.546C61.4503 296.052 61.3982 296.37 61.425 296.373C61.4336 296.374 61.4553 296.297 61.4741 296.154C61.4929 296.01 61.5023 295.799 61.4763 295.538C61.43 295.021 61.2023 294.288 60.6514 293.648C60.0997 293.01 59.3789 292.646 58.8461 292.492C58.5779 292.414 58.3545 292.376 58.1998 292.362C58.0458 292.348 57.9597 292.351 57.959 292.359Z" fill="#263238"/>
<path d="M63.1271 295.71C63.1148 295.744 63.8508 296.032 64.7994 296.253C65.7479 296.478 66.5345 296.548 66.5374 296.512C66.5417 296.473 65.7689 296.345 64.8297 296.122C63.8906 295.903 63.1401 295.674 63.1271 295.71Z" fill="#263238"/>
<path d="M60.8401 295.188C60.8054 295.208 60.869 295.353 60.9109 295.534C60.9557 295.714 60.9637 295.869 61.0042 295.875C61.0418 295.884 61.1025 295.717 61.0519 295.508C61.0027 295.3 60.8711 295.167 60.8401 295.188Z" fill="#263238"/>
<path d="M60.1978 293.994C60.1645 294.014 60.2144 294.144 60.3106 294.285C60.406 294.426 60.5108 294.526 60.5448 294.506C60.5781 294.487 60.5282 294.356 60.432 294.215C60.3359 294.074 60.2311 293.975 60.1978 293.994Z" fill="#263238"/>
<path d="M59.0606 293.259C59.0606 293.298 59.216 293.331 59.3758 293.426C59.537 293.518 59.6397 293.635 59.6759 293.616C59.712 293.603 59.6476 293.426 59.4488 293.311C59.2507 293.195 59.057 293.222 59.0606 293.259Z" fill="#263238"/>
<path d="M58.2293 292.843C58.2077 292.875 58.2626 292.945 58.3515 293.003C58.4412 293.06 58.5308 293.081 58.5525 293.05C58.5742 293.02 58.5193 292.948 58.4303 292.891C58.3407 292.834 58.251 292.813 58.2293 292.843Z" fill="#263238"/>
<path d="M104.226 71.1347C103.926 70.2758 103.199 69.628 102.846 68.7893C102.317 67.5342 102.705 66.1099 102.85 64.7558C102.993 63.4017 102.711 61.759 101.469 61.1995C100.958 60.9688 100.355 60.9659 99.8795 60.6702C98.9144 60.0694 98.965 58.69 98.876 57.5564C98.8182 56.8175 98.6252 56.0735 98.3085 55.4004C98.3743 55.3795 98.4422 55.3585 98.5116 55.3368C100.066 54.9356 101.733 55.8791 102.208 57.1674C102.46 57.8007 102.439 58.5201 102.082 58.9821C101.734 59.4535 101.103 59.6516 100.678 59.4339C100.248 59.2156 100.045 58.6907 100.165 58.3357C100.273 57.9547 100.681 57.8535 100.955 57.8918C101.243 57.9258 101.432 58.0776 101.515 58.2034C101.597 58.3321 101.605 58.4232 101.626 58.4196C101.634 58.4203 101.66 58.3256 101.592 58.1615C101.522 58.001 101.317 57.7935 100.983 57.7263C100.819 57.693 100.623 57.6908 100.421 57.7653C100.218 57.8325 100.023 58.0169 99.9381 58.2555C99.761 58.7363 99.9779 59.3826 100.537 59.7022C101.125 60.0188 101.92 59.7694 102.364 59.1997C102.834 58.6112 102.855 57.7508 102.578 57.0243C102.076 55.6361 100.446 54.6334 98.7763 54.8625C99.1356 54.2805 99.1869 53.5474 98.9975 52.9416C98.7387 52.0986 98.0367 51.5332 97.3296 51.2679C96.6131 50.9903 95.854 50.996 95.2105 51.1529C94.5598 51.3062 94.006 51.5903 93.5404 51.8918C93.0719 52.1976 92.7105 52.5331 92.3584 52.7579C92.0092 52.9893 91.6723 53.1108 91.3831 53.1339C90.7938 53.1867 90.5242 52.9141 90.5075 52.9524C90.4815 52.951 90.7324 53.3002 91.3917 53.2987C91.7099 53.3016 92.101 53.1874 92.4827 52.9604C92.8702 52.7399 93.2484 52.4181 93.7009 52.1463C94.5823 51.612 95.8966 51.1197 97.1864 51.6344C97.8082 51.8774 98.3953 52.3798 98.5955 53.063C98.7987 53.7159 98.6367 54.5321 98.0967 54.9927C97.7142 54.3326 97.198 53.7651 96.5314 53.3891C95.0869 52.5736 92.9498 52.9705 92.2167 54.4591L80.354 50.3873C78.8979 49.1004 76.7514 48.7208 74.9049 49.2913C74.8232 49.2768 74.7451 49.2616 74.6562 49.2522C74.1017 49.1951 73.3881 49.245 72.6521 49.5841C71.8944 49.9094 71.2799 50.6324 70.635 51.3467C70.3053 51.7009 69.9431 52.0552 69.497 52.2902C69.4247 52.3278 69.3466 52.3545 69.2707 52.3834C68.7538 52.4478 68.2217 52.4507 67.686 52.4384C66.6875 52.2099 65.6551 51.6366 64.4246 51.5108C63.7602 51.4313 63.0545 51.4573 62.3684 51.6583C61.6823 51.8629 61.0324 52.2519 60.535 52.8172C60.0318 53.3761 59.7353 54.1533 59.7418 54.9276C59.7368 55.4908 59.8503 56.0374 60.0014 56.568C59.7411 57.2831 59.6124 58.0429 59.6522 58.8078C59.705 59.8121 59.9942 60.864 60.005 61.853C59.7245 62.0772 59.3919 62.2427 59.0341 62.3483C58.408 62.5457 57.7377 62.6404 57.1022 62.8847C55.8218 63.3879 54.9232 64.4644 54.5393 65.5981C54.1937 66.624 54.2197 67.8097 54.8603 68.5854C54.5827 69.915 54.8292 71.3609 55.6968 72.4122C56.2752 73.1135 57.0639 73.6362 57.5563 74.4011C58.3357 75.6121 58.2243 77.1629 58.421 78.59C58.6176 80.0165 59.4447 81.628 60.882 81.722C62.0402 81.7979 63.0798 80.8255 64.2373 80.9202C65.8604 81.0532 66.5241 82.9973 67.4625 84.3283C68.649 86.01 70.8071 86.9498 72.8459 86.6729C74.3207 86.4719 75.7826 85.6919 77.2257 86.0584C79.0403 86.5189 80.1306 88.6459 81.9836 88.912C83.3631 89.1094 84.6398 88.1934 85.6636 87.2477C86.6873 86.302 87.7291 85.2234 89.1006 84.9775C90.7512 84.6811 92.341 85.6796 94.0024 85.9073C96.1475 86.2023 98.4191 85.0621 99.4653 83.1665C100.378 81.5116 100.375 79.4807 101.229 77.794C101.8 76.664 102.723 75.7552 103.432 74.7069C104.141 73.6586 104.644 72.3297 104.226 71.1347ZM56.6547 65.7991C56.3923 65.7427 56.2477 65.7795 56.2477 65.7795C56.247 65.7991 56.3684 65.8012 56.5723 65.8605C56.4986 65.9147 56.4212 65.9653 56.3504 66.0232C55.67 66.5763 55.2008 67.3405 54.9499 68.1762C54.5704 67.5132 54.5754 66.5604 54.8776 65.7166C55.2427 64.6799 56.0865 63.6988 57.2447 63.2571C57.8252 63.0365 58.4846 62.9469 59.157 62.7423C59.4339 62.6649 59.7165 62.537 59.9826 62.3757C59.9399 62.7647 59.8387 63.1399 59.6414 63.4949C59.0203 64.6054 57.7045 65.0616 56.6547 65.7991ZM64.7521 52.4984C62.8189 52.8086 61.1502 54.1764 60.2826 55.921C60.2125 55.5899 60.167 55.2595 60.1699 54.9334C60.1662 54.2437 60.4128 53.5937 60.8531 53.0956C61.7365 52.0689 63.1464 51.7494 64.3798 51.9063C65.0652 51.9656 65.6978 52.1868 66.3253 52.4051C65.7954 52.3993 65.2683 52.4153 64.7521 52.4984ZM70.7022 51.9959C70.5569 52.0624 70.4065 52.1058 70.2569 52.155C70.4803 51.9619 70.6784 51.7552 70.8598 51.5527C71.5069 50.8059 72.0643 50.1227 72.7569 49.8024C73.3809 49.4922 73.9976 49.4091 74.508 49.4207C74.1986 49.5429 73.8978 49.6874 73.6158 49.8682C72.6008 50.5174 71.7983 51.4927 70.7022 51.9959Z" fill="#263238"/>
<path d="M96.4177 76.8349C96.9831 73.2728 96.8045 67.4326 96.5037 62.658C96.2333 58.3606 92.4427 55.1535 88.1613 55.6061L75.7347 56.9205C74.434 57.0578 73.4551 58.1683 73.4804 59.4762L74.7615 90.004C73.0416 90.0091 71.8877 90.0112 71.8877 90.0112V95.5399C71.8877 101.865 77.0151 106.992 83.3397 106.992C89.6643 106.992 94.7917 101.865 94.7917 95.5399V90.7559C94.7917 90.7559 91.8145 89.7842 90.007 89.8826C89.9051 89.8883 89.7504 89.8934 89.5617 89.8985C89.5747 87.0991 89.7916 84.9099 89.7916 84.9099C89.7916 84.9099 95.2804 83.9975 96.4177 76.8349Z" fill="#FFBE9D"/>
<path d="M94.6409 67.2935C94.6583 67.7786 94.2614 68.1929 93.7553 68.2204C93.2499 68.2471 92.8255 67.877 92.8082 67.3918C92.7908 66.9067 93.1877 66.4917 93.6931 66.4643C94.1992 66.4375 94.6236 66.8084 94.6409 67.2935Z" fill="#263238"/>
<path d="M95.235 65.6947C95.1208 65.8147 94.4253 65.2992 93.4362 65.3021C92.4486 65.2905 91.7235 65.7988 91.6158 65.6781C91.563 65.6246 91.6794 65.4084 91.9953 65.1785C92.3062 64.9493 92.8369 64.7266 93.4521 64.7295C94.0681 64.7331 94.5858 64.9594 94.8836 65.1915C95.188 65.4243 95.2907 65.6412 95.235 65.6947Z" fill="#263238"/>
<path d="M84.9769 67.294C84.9942 67.7791 84.5973 68.1934 84.0912 68.2209C83.5858 68.2476 83.1615 67.8774 83.1441 67.3923C83.1268 66.9072 83.5237 66.4922 84.029 66.4647C84.5351 66.438 84.9595 66.8089 84.9769 67.294Z" fill="#263238"/>
<path d="M85.5163 65.8793C85.4021 65.9993 84.7051 65.4845 83.7176 65.4867C82.73 65.4751 82.0048 65.9834 81.8971 65.8626C81.8443 65.8091 81.9593 65.593 82.2767 65.3631C82.5875 65.1339 83.1175 64.9112 83.7335 64.9141C84.3494 64.9177 84.8671 65.144 85.165 65.3761C85.4686 65.6096 85.572 65.8258 85.5163 65.8793Z" fill="#263238"/>
<path d="M89.1109 73.2101C89.1065 73.1537 89.7203 73.0475 90.7166 72.9202C90.9689 72.8942 91.2075 72.8443 91.2502 72.6715C91.3094 72.4893 91.2039 72.2168 91.0817 71.9232C90.8446 71.3123 90.5959 70.6725 90.3349 70.0008C89.2981 67.2643 88.5477 65.0137 88.6583 64.9732C88.7689 64.9327 89.6986 67.1176 90.7354 69.8541C90.9848 70.5286 91.2234 71.172 91.4504 71.7873C91.5459 72.0743 91.71 72.3997 91.5813 72.7778C91.5133 72.9665 91.3282 73.1031 91.1663 73.1465C91.0043 73.1957 90.8626 73.1986 90.7376 73.2058C89.7362 73.2622 89.1145 73.2665 89.1109 73.2101Z" fill="#263238"/>
<path d="M89.7888 84.9087C89.7888 84.9087 84.9701 85.2196 80.1963 82.3501C80.1963 82.3501 82.5236 87.2707 89.6926 86.6005L89.7888 84.9087Z" fill="#EB996E"/>
<path d="M88.6882 75.5928C88.3325 75.1228 87.71 74.8647 87.0912 74.9312C86.6624 74.9775 86.2286 75.1843 85.9684 75.5335C85.7074 75.8827 85.6531 76.3786 85.8903 76.7119C86.1571 77.0872 86.7145 77.1739 87.1866 77.0395C87.6587 76.9057 88.0643 76.5948 88.4496 76.2854C88.5566 76.2001 88.6651 76.1104 88.7323 75.9933C88.7988 75.8762 88.8133 75.7222 88.7309 75.6253" fill="#EB996E"/>
<path d="M86.2022 73.8951C86.3627 73.8857 86.3649 74.9586 87.2838 75.7206C88.2005 76.4848 89.3443 76.3641 89.353 76.5145C89.3681 76.5817 89.0985 76.7227 88.6155 76.7357C88.142 76.7516 87.4501 76.5998 86.8883 76.1342C86.328 75.6671 86.0873 75.0439 86.0504 74.6036C86.0092 74.1547 86.1292 73.8893 86.2022 73.8951Z" fill="#263238"/>
<path d="M85.9607 64.15C85.8631 64.419 84.8763 64.2917 83.7166 64.4312C82.554 64.5476 81.6185 64.8874 81.4645 64.646C81.3958 64.5303 81.5592 64.278 81.9373 64.0177C82.3118 63.7582 82.9105 63.5109 83.6067 63.4335C84.3029 63.3576 84.9406 63.4682 85.3628 63.6396C85.7887 63.8116 86.0027 64.0228 85.9607 64.15Z" fill="#263238"/>
<path d="M94.8696 63.6755C94.6954 63.9003 94.015 63.6668 93.1959 63.656C92.3775 63.6162 91.6834 63.8071 91.5244 63.5721C91.4542 63.4579 91.5634 63.233 91.8663 63.0205C92.1649 62.8086 92.6645 62.6358 93.227 62.6525C93.7895 62.6705 94.2768 62.8737 94.5623 63.1036C94.8515 63.335 94.9462 63.5656 94.8696 63.6755Z" fill="#263238"/>
<path d="M99.1688 56.2649C98.6794 54.3577 97.232 52.5878 95.2958 52.2292C94.0328 51.995 92.7343 52.3695 91.4525 52.2863C90.3955 52.2176 90.0109 51.3768 89.0045 51.0457C87.3257 50.4948 86.0373 48.6302 82.4152 49.0199C81.4486 49.124 80.2043 50.2432 79.318 51.52C77.9306 50.9213 76.1007 51.5655 75.1008 52.0029C73.0288 52.9095 71.7325 55.2426 71.324 57.6132C70.9155 59.9839 71.2488 62.4218 71.5835 64.8054C71.7361 65.8942 71.8886 66.9831 72.0419 68.0726C72.1431 68.7948 72.2639 69.5388 72.6188 70.1548L70.9697 85.4884C74.2477 86.7096 78.3499 84.4553 79.0765 81.0342C79.7163 78.0201 78.039 74.9489 78.3044 71.8791C78.4627 70.0521 79.4951 68.3488 79.4886 66.5146C79.4864 65.947 79.3968 65.3433 79.2334 64.7303L79.2341 64.7295C82.1484 62.3661 82.8902 60.4625 82.768 58.248C83.666 58.8575 84.7143 59.2385 85.8017 59.2522C87.3365 59.2718 88.93 58.6767 90.3666 59.2183C91.4011 59.6079 92.1335 60.5131 92.9201 61.2896C93.7067 62.0661 94.7276 62.784 95.8222 62.6307C96.3499 62.5562 96.8271 62.2859 97.3274 62.1015C97.8277 61.9171 98.4162 61.8282 98.8731 62.1022C99.3503 60.1928 99.6576 58.1721 99.1688 56.2649Z" fill="#263238"/>
<path d="M56.3411 71.9574C56.3729 71.906 57.0865 72.6312 58.7175 73.3173C59.5295 73.647 60.5821 73.9586 61.8293 73.9752C63.0634 73.9933 64.518 73.7041 65.7861 72.783C67.0376 71.8894 68.1597 70.4087 68.3469 68.5883C68.4395 67.6947 68.2934 66.723 67.8083 65.9024C67.3412 65.0833 66.4476 64.4673 65.4586 64.442C64.9699 64.4268 64.484 64.5873 64.0943 64.891C63.7047 65.1982 63.4263 65.6494 63.2586 66.1381C62.9347 67.1308 63.0937 68.2904 63.8073 69.1283C64.4862 69.9872 65.5389 70.5316 66.6436 70.8136C67.757 71.0898 68.9571 71.1014 70.1153 70.8715C71.2743 70.6387 72.371 70.1557 73.2747 69.4479C74.1792 68.7394 74.8602 67.7973 75.2326 66.7519C75.6157 65.7115 75.696 64.5837 75.4907 63.5426C75.3866 63.0228 75.2131 62.5203 74.9557 62.0706C74.7019 61.6159 74.3939 61.2146 73.9833 60.9261C73.5871 60.6312 73.115 60.4323 72.6552 60.428C72.1968 60.4164 71.7666 60.6623 71.5519 61.049C71.3343 61.4344 71.2945 61.9202 71.4109 62.3446C71.5259 62.7726 71.7934 63.1529 72.1115 63.4624C73.4526 64.6907 75.281 65.0666 76.8072 64.904C78.3631 64.75 79.6659 64.027 80.5219 63.1385C81.3909 62.2477 81.858 61.2442 82.1088 60.4092C82.5766 58.6994 82.2664 57.693 82.3337 57.6988C82.3337 57.6988 82.4125 57.9359 82.4479 58.4051C82.4841 58.8721 82.4812 59.5785 82.2556 60.4504C82.0214 61.3115 81.5644 62.3533 80.6795 63.291C79.8076 64.2265 78.4563 65.0023 76.8376 65.1802C75.2456 65.3623 73.342 65.0052 71.8866 63.6973C71.5367 63.3611 71.2294 62.9411 71.0885 62.4335C70.9504 61.9318 70.9851 61.3657 71.254 60.8791C71.5186 60.3868 72.0869 60.0615 72.6559 60.0759C73.2234 60.0803 73.7534 60.3116 74.1973 60.6355C74.6535 60.9514 75.0084 61.4105 75.2781 61.8928C75.5572 62.3764 75.7459 62.9151 75.8587 63.4703C76.0821 64.5822 75.9982 65.7773 75.5948 66.8835C75.2037 67.994 74.472 69.0069 73.5169 69.7552C72.5612 70.5056 71.408 71.0132 70.1941 71.2568C68.9788 71.4976 67.7273 71.486 66.5503 71.1932C65.3856 70.8939 64.2577 70.3169 63.5087 69.3691C63.1306 68.91 62.8675 68.3432 62.7684 67.7569C62.6737 67.1712 62.7294 66.5748 62.905 66.0224C63.0937 65.4766 63.4097 64.9633 63.8673 64.6039C64.3257 64.2468 64.9077 64.0617 65.4695 64.0827C66.6031 64.1166 67.5979 64.8266 68.1062 65.7289C68.6318 66.6333 68.7756 67.6708 68.6708 68.6237C68.4539 70.5627 67.2596 72.094 65.9466 73.0107C64.6134 73.9571 63.0916 74.2369 61.8256 74.1957C60.5431 74.1581 59.4752 73.8161 58.659 73.4597C57.8384 73.0997 57.2586 72.7078 56.8855 72.4244C56.6946 72.2878 56.5631 72.1649 56.472 72.0875C56.3809 72.0058 56.3368 71.9624 56.3411 71.9574Z" fill="#455A64"/>
<path d="M99.5889 59.5008C99.594 59.508 99.4855 59.6071 99.244 59.743C99.004 59.8797 98.6259 60.051 98.1061 60.158C97.5877 60.2556 96.9247 60.2925 96.1844 60.1255C95.4462 59.9621 94.6437 59.5767 93.9258 58.9499C93.2064 58.3253 92.5709 57.4692 92.1451 56.426C91.9455 55.9076 91.8067 55.2569 92.0865 54.6467C92.2217 54.3546 92.4444 54.0842 92.7596 53.9259C93.0705 53.7618 93.4804 53.7661 93.7971 53.9389C94.4203 54.2802 94.7666 55.0639 94.5425 55.7753C94.3321 56.4751 93.7516 56.9747 93.1276 57.2834C91.8508 57.911 90.2993 57.8271 88.9416 57.3434C88.2547 57.1034 87.6113 56.7817 87.0119 56.413C86.4242 56.0291 85.8378 55.6632 85.3686 55.1065C84.9015 54.5708 84.7143 53.6743 85.2066 53.0518C85.4438 52.7431 85.8812 52.6065 86.2412 52.6853C86.6034 52.7612 86.9078 52.9672 87.1247 53.2398C87.3438 53.5073 87.4551 53.8847 87.4067 54.2223C87.3655 54.5614 87.2115 54.8672 87.0069 55.1109C86.5933 55.5953 85.9961 55.8678 85.4163 55.9112C84.8365 55.9626 84.2899 55.8469 83.7961 55.6979C83.3016 55.5425 82.8454 55.3632 82.4152 55.1666C81.5578 54.7754 80.8333 54.2491 80.3945 53.6187C79.9426 52.9882 79.8371 52.2963 79.8754 51.7685C79.9137 51.2299 80.1248 50.846 80.2969 50.6291C80.4776 50.4137 80.6128 50.3472 80.6128 50.3472C80.6671 50.3674 80.0757 50.7347 80.0272 51.7772C80.0135 52.2754 80.1371 52.921 80.5709 53.4892C80.9975 54.0669 81.6901 54.5506 82.5287 54.9142C83.3681 55.2511 84.3456 55.677 85.3838 55.588C85.8928 55.5447 86.3981 55.2996 86.7408 54.8911C87.0828 54.4913 87.1999 53.8782 86.8399 53.4639C86.5203 53.0359 85.8233 52.848 85.4951 53.289C85.3317 53.4907 85.2681 53.7849 85.3028 54.0705C85.331 54.3575 85.4705 54.6243 85.6657 54.8665C86.0627 55.3408 86.6483 55.7175 87.2151 56.0826C87.7942 56.4368 88.4138 56.7455 89.0681 56.974C90.3651 57.4345 91.7988 57.5032 92.9577 56.9386C93.5209 56.6646 94.0169 56.2214 94.1824 55.6683C94.3668 55.1391 94.0805 54.505 93.6272 54.2578C93.1652 53.9866 92.6006 54.3163 92.3967 54.7921C92.1697 55.2605 92.2644 55.8266 92.4466 56.3103C92.8355 57.2993 93.4334 58.1358 94.1073 58.7424C94.7818 59.3533 95.5344 59.7358 96.2335 59.9122C96.9355 60.0922 97.5732 60.0799 98.0779 60.0076C99.0958 59.837 99.5694 59.4567 99.5889 59.5008Z" fill="#455A64"/>
<path d="M78.7117 76.317C78.7175 76.3242 78.6221 76.4218 78.4059 76.5642C78.1912 76.7059 77.8441 76.8881 77.3561 76.9857C76.8725 77.0841 76.242 77.1 75.5653 76.8701C74.9117 76.6387 74.1367 76.1861 73.7738 75.3099C73.5959 74.8956 73.5974 74.2644 74.0485 73.8972C74.4693 73.527 75.1597 73.5566 75.6072 73.8957C76.5182 74.5522 76.8956 75.8073 76.717 76.9807C76.5529 78.1447 75.8596 79.3947 74.6247 79.942C73.4166 80.5009 71.9251 80.3469 70.7387 79.6543C70.1451 79.3058 69.6181 78.8474 69.2501 78.2676C68.8806 77.6986 68.7093 76.9597 68.898 76.296C68.9905 75.9692 69.1489 75.6526 69.407 75.4125C69.6593 75.1696 70.0193 75.0272 70.3664 75.0424C71.0669 75.0662 71.6294 75.5456 71.915 76.082C72.2114 76.625 72.3133 77.2135 72.3394 77.7702C72.3647 78.3305 72.3097 78.8763 72.1825 79.3853C71.9294 80.4033 71.4168 81.2824 70.7575 81.8912C70.1017 82.5108 69.2927 82.8079 68.5907 82.8665C67.8822 82.9351 67.2698 82.7826 66.8187 82.5845C66.3661 82.3792 66.0617 82.1355 65.8817 81.9512C65.7017 81.7654 65.6258 81.6526 65.6345 81.6461C65.667 81.6049 65.9894 82.0842 66.8773 82.4442C67.3168 82.612 67.9024 82.7341 68.5676 82.6488C69.2291 82.5715 69.9665 82.2801 70.5673 81.6894C71.171 81.1089 71.641 80.2731 71.8665 79.3094C71.98 78.8279 72.0249 78.3124 71.9952 77.7882C71.9663 77.2655 71.8608 76.7233 71.5998 76.2577C71.3511 75.7957 70.8804 75.4299 70.3577 75.4154C69.835 75.3872 69.4048 75.847 69.2682 76.3951C69.1149 76.9452 69.2515 77.5504 69.579 78.0586C69.9029 78.5698 70.3902 78.9956 70.9346 79.3145C72.0256 79.9521 73.3877 80.0866 74.4649 79.5921C75.5588 79.1178 76.1979 77.9979 76.3599 76.9272C76.537 75.8557 76.1856 74.7243 75.4222 74.1618C75.0542 73.8813 74.5582 73.869 74.2408 74.13C73.9184 74.3808 73.8894 74.8457 74.0333 75.2123C74.3254 75.9765 75.0317 76.4319 75.639 76.6633C76.2666 76.8983 76.8638 76.9069 77.3294 76.8354C78.2743 76.6763 78.6879 76.2678 78.7117 76.317Z" fill="#455A64"/>
<path d="M48.8457 252.066C48.8457 252.066 53.6767 261.46 66.2919 256.897C66.2919 256.897 78.6383 263.607 90.4481 256.092C90.4481 256.092 105.742 258.142 114.063 254.117L103.361 161.832L102.006 147.659H68.2642C68.2642 147.659 58.2394 152.222 56.6293 174.499C55.0192 196.776 51.5294 227.374 51.5294 227.374L48.8457 252.066Z" fill="#263238"/>
<path d="M89.7296 256.375C89.7231 256.375 89.7101 256.281 89.692 256.097C89.6739 255.895 89.6493 255.624 89.619 255.279C89.5611 254.537 89.4794 253.48 89.3746 252.128C89.1664 249.391 88.9032 245.429 88.6133 240.531C88.0306 230.736 87.4059 217.191 87.0784 202.221C86.7567 187.246 86.7928 173.686 86.9505 163.874C87.0278 158.968 87.1182 154.999 87.2078 152.257C87.2541 150.902 87.2903 149.843 87.3156 149.1C87.3315 148.754 87.3437 148.482 87.3531 148.279C87.364 148.094 87.3727 147.999 87.3792 148C87.3857 148 87.39 148.095 87.3922 148.281C87.3922 148.484 87.3922 148.756 87.3922 149.103C87.3835 149.846 87.3712 150.906 87.3553 152.261C87.3228 155.025 87.2751 158.989 87.2172 163.879C87.1283 173.689 87.1334 187.244 87.4551 202.214C87.7826 217.179 88.3653 230.72 88.8794 240.518C89.1498 245.4 89.3681 249.358 89.5214 252.119C89.5958 253.473 89.6544 254.532 89.6949 255.274C89.7101 255.621 89.7216 255.892 89.7303 256.096C89.7361 256.279 89.7361 256.375 89.7296 256.375Z" fill="#455A64"/>
<path d="M92.6917 229.978C92.683 229.961 92.7633 229.88 92.9548 229.83C93.1443 229.777 93.4494 229.78 93.7761 229.934C94.0906 230.088 94.4536 230.403 94.5526 230.91C94.664 231.422 94.3422 231.996 93.8513 232.266C93.3684 232.551 92.7105 232.533 92.3266 232.176C91.9419 231.831 91.8566 231.358 91.8848 231.009C91.9203 230.65 92.0735 230.386 92.2152 230.251C92.3569 230.112 92.4675 230.084 92.4769 230.101C92.5247 230.143 92.1444 230.402 92.1502 231.021C92.1552 231.313 92.2637 231.683 92.5485 231.91C92.824 232.147 93.2838 232.156 93.6641 231.939C94.0444 231.723 94.2714 231.323 94.2092 230.965C94.1586 230.604 93.8969 230.322 93.6489 230.169C93.1211 229.846 92.704 230.04 92.6917 229.978Z" fill="#455A64"/>
<path d="M91.9417 202.558C91.933 202.541 92.0132 202.46 92.2048 202.41C92.3943 202.357 92.6994 202.36 93.0261 202.514C93.3406 202.668 93.7036 202.983 93.8026 203.49C93.914 204.002 93.5922 204.576 93.1013 204.846C92.6184 205.131 91.9605 205.113 91.5766 204.756C91.1919 204.411 91.1066 203.938 91.1348 203.59C91.1703 203.23 91.3235 202.966 91.4652 202.831C91.6069 202.692 91.7175 202.664 91.7269 202.681C91.7747 202.723 91.3944 202.982 91.4002 203.601C91.4052 203.892 91.5137 204.262 91.7985 204.49C92.074 204.726 92.5338 204.736 92.9141 204.519C93.2944 204.303 93.5214 203.903 93.4592 203.545C93.4086 203.184 93.1469 202.902 92.8989 202.748C92.3704 202.426 91.954 202.62 91.9417 202.558Z" fill="#455A64"/>
<path d="M91.5003 178.324C91.4916 178.308 91.5718 178.228 91.7634 178.176C91.9528 178.123 92.2579 178.127 92.5847 178.28C92.8992 178.434 93.2622 178.75 93.3612 179.256C93.4726 179.769 93.1508 180.343 92.6599 180.613C92.177 180.898 91.5191 180.879 91.1352 180.522C90.7505 180.177 90.6652 179.705 90.6934 179.356C90.7288 178.997 90.8821 178.733 91.0238 178.598C91.1655 178.459 91.2761 178.431 91.2855 178.447C91.3333 178.489 90.953 178.749 90.9587 179.368C90.9638 179.66 91.0723 180.029 91.3571 180.257C91.6326 180.493 92.0924 180.503 92.4727 180.286C92.853 180.07 93.08 179.67 93.0178 179.312C92.9672 178.951 92.7055 178.669 92.4575 178.515C91.929 178.192 91.5126 178.387 91.5003 178.324Z" fill="#455A64"/>
<path d="M90.6377 152.395C90.629 152.379 90.7093 152.298 90.9009 152.247C91.0903 152.194 91.3954 152.198 91.7215 152.351C92.0359 152.505 92.3989 152.82 92.4979 153.327C92.6093 153.84 92.2875 154.414 91.7966 154.683C91.3137 154.968 90.6558 154.95 90.2719 154.593C89.8873 154.248 89.8019 153.775 89.8301 153.427C89.8656 153.068 90.0188 152.804 90.1605 152.669C90.3022 152.53 90.4129 152.502 90.4223 152.518C90.47 152.561 90.0897 152.82 90.0955 153.439C90.1005 153.731 90.209 154.1 90.4938 154.328C90.7693 154.563 91.2291 154.574 91.6094 154.357C91.9897 154.141 92.2167 153.741 92.1545 153.383C92.1039 153.021 91.8422 152.739 91.5942 152.586C91.0664 152.263 90.65 152.457 90.6377 152.395Z" fill="#455A64"/>
<path d="M134.653 124.333L305.182 123.095L309.935 239.033L133.358 237.396L134.653 124.333Z" fill="#EA580C"/>
<path d="M134.65 124.333L215.357 59.0289C218.775 56.2635 223.664 56.2794 227.065 59.0657L305.18 123.095" fill="#EA580C"/>
<g opacity="0.3">
<path d="M134.65 124.333L215.357 59.0289C218.775 56.2635 223.664 56.2794 227.065 59.0657L305.18 123.095" fill="black"/>
</g>
<path d="M133.356 237.397C133.143 237.197 146.795 222.291 163.845 204.108C180.901 185.918 194.894 171.339 195.107 171.538C195.32 171.738 181.671 186.64 164.615 204.83C147.565 223.014 133.569 237.596 133.356 237.397Z" fill="#263238"/>
<path d="M309.933 239.034C309.715 239.227 296.42 224.623 280.241 206.418C264.057 188.206 251.118 173.291 251.337 173.097C251.554 172.903 264.847 187.505 281.032 205.717C297.21 223.921 310.151 238.84 309.933 239.034Z" fill="#263238"/>
<g opacity="0.5">
<path d="M305.18 123.095L219.549 191.502L134.65 124.334" fill="black"/>
</g>
<path d="M143.238 130.668L142.972 77.4076L292.293 75.6421L293.975 131.681L219.54 190.607L143.238 130.668Z" fill="#FAFAFA"/>
<path d="M143.236 130.667C143.236 130.667 143.719 131.029 144.636 131.74C145.556 132.457 146.914 133.514 148.687 134.896C152.235 137.671 157.441 141.743 164.096 146.948C177.392 157.371 196.474 172.33 219.633 190.485L219.442 190.485C240.885 173.499 266.328 153.344 293.858 131.535L293.787 131.687C293.465 120.995 293.128 109.78 292.784 98.3668C292.554 90.6844 292.326 83.0916 292.103 75.6478L292.293 75.8293C232.118 76.514 179.035 77.1177 142.971 77.5283L143.091 77.4069C143.149 94.1648 143.195 107.471 143.227 116.594C143.237 121.154 143.244 124.669 143.248 127.049C143.247 128.235 143.247 129.136 143.246 129.748C143.245 130.354 143.236 130.667 143.236 130.667C143.236 130.667 143.224 130.364 143.216 129.762C143.209 129.153 143.2 128.255 143.187 127.076C143.168 124.7 143.14 121.191 143.104 116.637C143.044 107.505 142.958 94.1843 142.848 77.4083L142.848 77.2883L142.968 77.2868C179.031 76.8444 232.114 76.193 292.288 75.4548L292.471 75.4526L292.477 75.637C292.701 83.0801 292.929 90.6728 293.16 98.3559C293.502 109.77 293.838 120.984 294.159 131.676L294.162 131.77L294.088 131.828C266.543 153.618 241.087 173.756 219.633 190.728L219.538 190.804L219.442 190.729C196.3 172.513 177.233 157.504 163.947 147.046C157.321 141.818 152.137 137.728 148.605 134.941C146.849 133.55 145.504 132.485 144.594 131.763C143.691 131.043 143.236 130.667 143.236 130.667Z" fill="#263238"/>
<path d="M268.695 102.459C268.695 102.563 245.859 102.785 217.696 102.957C189.522 103.128 166.69 103.182 166.689 103.078C166.689 102.974 189.52 102.751 217.694 102.58C245.857 102.409 268.694 102.354 268.695 102.459Z" fill="#263238"/>
<path d="M268.695 117.503C268.695 117.607 245.859 117.829 217.696 118.001C189.522 118.172 166.69 118.226 166.689 118.122C166.689 118.018 189.52 117.795 217.694 117.624C245.857 117.453 268.694 117.399 268.695 117.503Z" fill="#263238"/>
<path d="M268.695 134.842C268.695 134.947 245.859 135.169 217.696 135.341C189.522 135.511 166.69 135.566 166.689 135.462C166.689 135.358 189.52 135.135 217.694 134.964C245.857 134.793 268.694 134.738 268.695 134.842Z" fill="#263238"/>
<path d="M268.694 152.182C268.694 152.286 246.908 152.502 220.039 152.665C193.16 152.829 171.378 152.876 171.377 152.772C171.376 152.668 193.158 152.452 220.036 152.289C246.905 152.126 268.693 152.078 268.694 152.182Z" fill="#263238"/>
<path d="M249.597 167.402C249.597 167.415 249.391 167.429 248.999 167.444C248.573 167.456 248.002 167.472 247.284 167.49C245.757 167.516 243.611 167.551 240.976 167.594C235.616 167.671 228.274 167.777 220.163 167.893C212.033 168.029 204.671 168.074 199.344 168.081C196.708 168.074 194.562 168.069 193.034 168.066C192.316 168.056 191.745 168.048 191.319 168.042C190.927 168.033 190.721 168.021 190.721 168.008C190.721 167.995 190.927 167.981 191.319 167.966C191.745 167.954 192.316 167.939 193.034 167.92C194.561 167.894 196.706 167.859 199.342 167.816C204.701 167.739 212.044 167.633 220.158 167.517C228.285 167.381 235.646 167.336 240.974 167.329C243.61 167.336 245.755 167.341 247.283 167.344C248.001 167.354 248.572 167.362 248.999 167.368C249.391 167.378 249.597 167.389 249.597 167.402Z" fill="#263238"/>
<path d="M230.372 182.031C230.372 182.135 225.502 182.219 219.498 182.219C213.491 182.219 208.623 182.135 208.623 182.031C208.623 181.927 213.491 181.843 219.498 181.843C225.502 181.843 230.372 181.927 230.372 182.031Z" fill="#263238"/>
<path d="M280.634 170.218C290.595 170.218 298.67 162.143 298.67 152.181C298.67 142.22 290.595 134.145 280.634 134.145C270.672 134.145 262.597 142.22 262.597 152.181C262.597 162.143 270.672 170.218 280.634 170.218Z" fill="#A16207"/>
<path d="M275.938 170.218C285.9 170.218 293.975 162.143 293.975 152.181C293.975 142.22 285.9 134.145 275.938 134.145C265.977 134.145 257.901 142.22 257.901 152.181C257.901 162.143 265.977 170.218 275.938 170.218Z" fill="#EAB308"/>
<path d="M278.231 143.784V158.78H275.446V146.119H272.275V143.784H278.231Z" fill="#EBEBEB"/>
<path d="M144.406 53.083L160.901 53.0779L158.671 50.515L158.669 44.3768C158.668 41.0576 155.976 38.3674 152.657 38.3682C149.337 38.3696 146.647 41.0613 146.648 44.3805L146.65 50.2214L144.406 53.083Z" fill="#EAB308"/>
<path d="M150.348 52.2728C150.386 53.235 151.021 54.1482 151.909 54.5205C152.798 54.8928 153.894 54.7041 154.607 54.0563C155.32 53.4085 155.612 52.3356 155.328 51.416" fill="#EAB308"/>
<path d="M153.571 35.8711H151.953V39.3103H153.571V35.8711Z" fill="#EAB308"/>
<path d="M176.703 41.7937C176.694 41.7952 176.655 41.6484 176.588 41.3621C176.518 41.0527 176.422 40.6305 176.299 40.089C176.201 39.5221 175.976 38.8498 175.713 38.0552C175.572 37.6619 175.471 37.2187 175.272 36.7806C175.078 36.3396 174.874 35.8711 174.658 35.3751C173.728 33.4296 172.374 31.1226 170.285 28.9131C168.211 26.7073 165.409 24.6143 161.955 23.1806C160.247 22.4099 158.342 21.9545 156.358 21.5872C154.359 21.3486 152.25 21.1895 150.1 21.4874C149.014 21.5532 147.945 21.8352 146.848 22.0549C146.301 22.1713 145.773 22.381 145.228 22.5415C144.684 22.7078 144.137 22.8799 143.614 23.1315C141.453 23.9571 139.41 25.2549 137.497 26.7926C133.657 29.8689 130.656 34.5025 129.331 39.8562C128.666 42.5341 128.529 45.4029 128.858 48.2471C129.127 51.1036 130.009 53.9355 131.335 56.544L131.755 57.3306L131.81 57.4347L131.778 57.5417C130.445 61.9157 129.138 66.2052 127.871 70.3616L127.529 70.0514C131.09 68.1941 134.544 66.3939 137.857 64.6659L137.985 64.5994L138.101 64.6891C141.43 67.2499 145.234 68.8043 148.975 69.4123C152.728 70.0218 156.395 69.6559 159.658 68.6835C162.928 67.7111 165.787 66.0909 168.105 64.1635C170.431 62.2353 172.218 60.0092 173.54 57.8049C174.848 55.5788 175.624 53.3607 176.176 51.3956C176.632 49.3995 176.851 47.6492 176.89 46.2169C176.895 45.5033 176.899 44.8686 176.903 44.3155C176.855 43.774 176.814 43.3142 176.781 42.9332C176.752 42.5775 176.73 42.2969 176.712 42.0851C176.699 41.8928 176.696 41.7952 176.703 41.7937C176.71 41.793 176.726 41.8885 176.753 42.0779C176.78 42.289 176.816 42.5681 176.861 42.923C176.905 43.3048 176.959 43.7668 177.022 44.309C177.029 44.8657 177.038 45.5041 177.047 46.222C177.032 47.6658 176.835 49.4342 176.396 51.4571C175.861 53.4482 175.097 55.701 173.79 57.9661C172.47 60.2102 170.673 62.4796 168.326 64.4505C165.986 66.4206 163.091 68.082 159.773 69.0855C156.463 70.0883 152.736 70.4751 148.915 69.8671C145.106 69.2605 141.226 67.688 137.826 65.0831L138.071 65.1062C134.76 66.8392 131.31 68.6452 127.75 70.5076L127.229 70.7802L127.407 70.1982C128.671 66.0403 129.975 61.7502 131.306 57.3754L131.329 57.5858L130.9 56.7826C129.544 54.1162 128.644 51.2192 128.37 48.2998C128.036 45.3935 128.179 42.4603 128.861 39.7246C130.22 34.256 133.293 29.5385 137.212 26.4145C139.164 24.8529 141.249 23.5399 143.451 22.7056C143.985 22.4526 144.541 22.2791 145.094 22.1113C145.649 21.9501 146.187 21.739 146.743 21.6226C147.86 21.4035 148.947 21.1216 150.05 21.0594C152.236 20.7673 154.379 20.9372 156.408 21.191C158.422 21.5734 160.351 22.0477 162.08 22.8401C165.575 24.3171 168.399 26.4601 170.48 28.7114C172.575 30.9664 173.919 33.3139 174.83 35.2891C175.041 35.7923 175.24 36.268 175.428 36.7155C175.622 37.1594 175.717 37.6084 175.851 38.0061C176.102 38.8107 176.313 39.4911 176.395 40.0644C176.498 40.6117 176.578 41.0397 176.637 41.352C176.689 41.6434 176.711 41.793 176.703 41.7937Z" fill="#263238"/>
<path d="M376.18 213.482C378.541 221.474 376.748 231.742 373.887 239.569C371.025 247.398 365.595 254.262 358.636 258.847C357.851 259.365 356.846 259.865 356.02 259.419C355.343 259.052 355.108 258.211 354.959 257.454C353.282 248.891 354.454 239.794 358.247 231.935C362.04 224.074 368.432 217.497 376.18 213.482Z" fill="#EA580C"/>
<g opacity="0.2">
<path d="M376.18 213.482C378.541 221.474 376.748 231.742 373.887 239.569C371.025 247.398 365.595 254.262 358.636 258.847C357.851 259.365 356.846 259.865 356.02 259.419C355.343 259.052 355.108 258.211 354.959 257.454C353.282 248.891 354.454 239.794 358.247 231.935C362.04 224.074 368.432 217.497 376.18 213.482Z" fill="black"/>
</g>
<path d="M340.66 175.562C345.639 175.427 348.92 180.956 349.419 185.912C349.918 190.867 348.814 196.013 350.269 200.776C352.117 206.825 357.771 211.165 359.485 217.253C361.505 224.434 357.566 231.885 357.378 239.343C357.286 242.97 358.088 246.638 357.417 250.205C356.285 256.218 350.546 261.028 344.427 261.088C338.308 261.149 332.474 256.455 331.224 250.464C330.058 244.878 332.52 238.943 331.044 233.431C329.952 229.357 326.79 225.898 326.532 221.688C326.225 216.679 330.103 212.348 330.821 207.381C331.54 202.413 329.032 197.562 328.658 192.555C327.987 183.574 331.705 176.523 340.66 175.562Z" fill="#EA580C"/>
<path d="M351.566 277.828C351.582 277.831 351.632 277.66 351.712 277.33C351.8 276.95 351.908 276.472 352.042 275.886C352.311 274.629 352.727 272.816 353.271 270.584C354.355 266.119 356.055 259.998 358.403 253.394C360.759 246.79 363.313 240.972 365.296 236.828C366.286 234.755 367.11 233.087 367.696 231.943C367.963 231.405 368.18 230.966 368.354 230.616C368.499 230.311 368.569 230.146 368.555 230.138C368.541 230.131 368.443 230.279 368.27 230.571C368.077 230.91 367.833 231.336 367.534 231.857C366.898 232.976 366.027 234.623 364.998 236.682C362.933 240.797 360.324 246.612 357.959 253.236C355.605 259.86 353.95 266.014 352.947 270.508C352.444 272.755 352.076 274.581 351.862 275.851C351.764 276.443 351.684 276.927 351.62 277.313C351.569 277.648 351.55 277.826 351.566 277.828Z" fill="#263238"/>
<path d="M340.867 200.054C340.85 200.056 340.873 200.331 340.932 200.851C341.001 201.412 341.095 202.169 341.213 203.123C341.479 205.138 341.853 207.979 342.313 211.471C343.25 218.518 344.534 228.256 345.887 239.018C347.239 249.784 348.403 259.536 349.238 266.597C349.656 270.094 349.996 272.939 350.237 274.957C350.359 275.911 350.456 276.669 350.528 277.228C350.599 277.747 350.644 278.018 350.661 278.017C350.677 278.015 350.663 277.74 350.622 277.218C350.573 276.656 350.505 275.895 350.42 274.938C350.215 272.915 349.926 270.064 349.57 266.56C348.819 259.489 347.707 249.728 346.355 238.959C345.001 228.195 343.665 218.463 342.643 211.425C342.121 207.942 341.696 205.108 341.394 203.097C341.24 202.148 341.117 201.395 341.026 200.837C340.937 200.321 340.882 200.052 340.867 200.054Z" fill="#263238"/>
<path d="M368.934 268.062H331.153V272.473H368.934V268.062Z" fill="#263238"/>
<path d="M334.656 272.474L339.093 299.238H362.527L365.598 272.474H334.656Z" fill="#263238"/>
<path d="M365.719 272.292C365.72 272.396 358.741 272.567 350.133 272.674C341.521 272.781 334.541 272.784 334.54 272.68C334.539 272.576 341.516 272.405 350.127 272.298C358.736 272.191 365.718 272.188 365.719 272.292Z" fill="#455A64"/>
<path d="M364.431 285.687C364.431 285.694 364.359 285.703 364.218 285.712C364.056 285.72 363.85 285.729 363.592 285.742C363.042 285.754 362.224 285.777 361.179 285.648C360.147 285.515 358.83 285.222 357.607 284.309C357.004 283.859 356.426 283.254 356.052 282.469C355.68 281.694 355.515 280.717 355.829 279.78C356.12 278.848 357.063 278.032 358.184 278.078C358.737 278.106 359.273 278.39 359.642 278.815C360.014 279.241 360.251 279.771 360.371 280.33C360.83 282.617 359.225 285.158 356.783 285.956C354.299 286.796 351.308 285.377 350.077 282.883C349.77 282.26 349.564 281.574 349.532 280.859C349.498 280.148 349.645 279.394 350.081 278.778C350.508 278.174 351.184 277.715 351.961 277.649C352.743 277.576 353.516 278.009 353.945 278.633C354.39 279.251 354.61 280.002 354.593 280.746C354.582 281.484 354.379 282.203 354.051 282.842C353.402 284.136 352.268 285.096 351.039 285.697C349.801 286.304 348.484 286.621 347.184 286.786C345.884 286.943 344.556 286.88 343.354 286.453C342.158 286.026 341.111 285.237 340.476 284.195C339.822 283.161 339.713 281.858 340.103 280.783C340.468 279.703 341.391 278.819 342.478 278.664C343.543 278.515 344.617 278.921 345.242 279.695C345.874 280.493 345.842 281.571 345.487 282.352C345.145 283.161 344.528 283.754 343.9 284.165C343.268 284.582 342.618 284.849 342.022 285.076C341.424 285.301 340.869 285.481 340.364 285.627C339.357 285.919 338.555 286.074 338.012 286.165C337.74 286.211 337.532 286.239 337.391 286.255C337.25 286.271 337.178 286.276 337.177 286.269C337.176 286.263 337.246 286.245 337.384 286.217C337.543 286.184 337.745 286.142 337.997 286.09C338.535 285.975 339.326 285.797 340.322 285.486C340.819 285.331 341.367 285.141 341.956 284.908C342.543 284.674 343.177 284.4 343.782 283.989C344.383 283.583 344.955 283.017 345.265 282.258C345.589 281.522 345.596 280.556 345.033 279.861C344.473 279.175 343.48 278.807 342.522 278.951C341.559 279.095 340.729 279.889 340.397 280.887C340.046 281.884 340.147 283.066 340.757 284.022C341.349 284.985 342.338 285.729 343.467 286.125C344.605 286.525 345.877 286.585 347.139 286.429C348.402 286.266 349.691 285.95 350.873 285.367C352.05 284.787 353.11 283.881 353.716 282.673C354.332 281.499 354.454 279.958 353.64 278.854C353.259 278.308 352.628 277.966 351.989 278.023C351.351 278.074 350.754 278.468 350.386 278.993C350.012 279.518 349.872 280.193 349.903 280.841C349.93 281.494 350.12 282.138 350.406 282.719C351.551 285.061 354.379 286.402 356.674 285.624C358.962 284.895 360.482 282.489 360.064 280.392C359.957 279.878 359.74 279.392 359.414 279.013C359.089 278.635 358.636 278.395 358.166 278.366C357.207 278.317 356.344 279.027 356.079 279.866C355.786 280.715 355.923 281.631 356.267 282.366C356.612 283.111 357.157 283.698 357.733 284.141C358.9 285.038 360.18 285.349 361.198 285.503C362.227 285.653 363.041 285.654 363.591 285.666C363.849 285.669 364.055 285.671 364.217 285.674C364.359 285.677 364.431 285.682 364.431 285.687Z" fill="#455A64"/>
</svg>
